<svg xmlns="http://www.w3.org/2000/svg" width="8" height="10" viewBox="0 0 8 10"><defs><style>.a{fill:#dc000c;}</style></defs><path class="a" d="M10.217,4.324a1.313,1.313,0,0,1,.25.424,1.366,1.366,0,0,1,.1.491v6.429a.536.536,0,0,1-.146.379.466.466,0,0,1-.354.156h-7a.466.466,0,0,1-.354-.156.536.536,0,0,1-.146-.379V2.739a.536.536,0,0,1,.146-.379A.466.466,0,0,1,3.071,2.2H7.737a1.135,1.135,0,0,1,.458.112,1.205,1.205,0,0,1,.4.268ZM7.9,2.962v2.1H9.862a.624.624,0,0,0-.115-.229L8.118,3.085A.559.559,0,0,0,7.9,2.962Zm2,8.527V5.775H7.737a.466.466,0,0,1-.354-.156.536.536,0,0,1-.146-.379V2.918h-4v8.571H9.9ZM7.227,8.18a3.956,3.956,0,0,0,.437.313,4.828,4.828,0,0,1,.609-.039q.766,0,.922.273a.286.286,0,0,1,.01.29.017.017,0,0,1-.005.011l-.01.011v.006q-.031.212-.37.212a2.019,2.019,0,0,1-.6-.112,3.658,3.658,0,0,1-.677-.3A8.842,8.842,0,0,0,5.5,9.313q-.8,1.462-1.26,1.462a.287.287,0,0,1-.146-.039l-.125-.067-.031-.028a.244.244,0,0,1-.031-.2A1.232,1.232,0,0,1,4.2,9.929a2.536,2.536,0,0,1,.688-.539q.073-.05.12.033a.033.033,0,0,1,.01.022q.271-.474.557-1.1a8.886,8.886,0,0,0,.542-1.462A4.8,4.8,0,0,1,5.959,6a2.321,2.321,0,0,1,.034-.711q.057-.223.219-.223h.115a.213.213,0,0,1,.182.084.472.472,0,0,1,.047.379.124.124,0,0,1-.021.045.155.155,0,0,1,.005.045V5.78a7.819,7.819,0,0,1-.073,1.071,2.858,2.858,0,0,0,.76,1.328Zm-3,2.294a2.414,2.414,0,0,0,.714-.882,3.072,3.072,0,0,0-.456.469A1.871,1.871,0,0,0,4.227,10.474ZM6.3,5.34a1.775,1.775,0,0,0-.01.737q.005-.039.036-.246,0-.017.036-.24a.129.129,0,0,1,.021-.045.017.017,0,0,1-.005-.011.012.012,0,0,0,0-.008.012.012,0,0,1,0-.008.335.335,0,0,0-.068-.2.017.017,0,0,1-.005.011V5.34ZM5.654,9.028a7.252,7.252,0,0,1,1.479-.452.79.79,0,0,1-.068-.053.953.953,0,0,1-.083-.075,2.956,2.956,0,0,1-.661-.982,7.759,7.759,0,0,1-.432,1.1q-.156.312-.234.463Zm3.365-.089q-.125-.134-.729-.134a1.859,1.859,0,0,0,.646.156.472.472,0,0,0,.094-.006s0-.009-.01-.017Z" transform="translate(-2.571 -2.204)"/></svg>