<svg xmlns="http://www.w3.org/2000/svg" width="8" height="10" viewBox="0 0 8 10"><defs><style>.a{fill:#585757;}</style></defs><path class="a" d="M10.217,4.324a1.313,1.313,0,0,1,.25.424,1.366,1.366,0,0,1,.1.491v6.429a.536.536,0,0,1-.146.379.466.466,0,0,1-.354.156h-7a.466.466,0,0,1-.354-.156.536.536,0,0,1-.146-.379V2.739a.536.536,0,0,1,.146-.379A.466.466,0,0,1,3.071,2.2H7.737a1.135,1.135,0,0,1,.458.112,1.205,1.205,0,0,1,.4.268ZM7.9,2.962v2.1H9.862a.624.624,0,0,0-.115-.229L8.118,3.085A.559.559,0,0,0,7.9,2.962Zm2,8.527V5.775H7.737a.466.466,0,0,1-.354-.156.536.536,0,0,1-.146-.379V2.918h-4v8.571H9.9Zm-5.1-1.306v.592H6.269v-.592H5.878l.536-.9a.813.813,0,0,0,.052-.092q.026-.053.039-.075T6.524,9.1h.01a.2.2,0,0,0,.026.056.317.317,0,0,0,.023.042l.031.045.034.047.557.9h-.4v.592H8.326v-.592H7.972l-1-1.523L7.987,7.086h.349v-.6H6.883v.6h.385l-.536.887q-.021.039-.052.092t-.047.075l-.01.017h-.01A.2.2,0,0,0,6.586,8.1.665.665,0,0,0,6.5,7.974l-.552-.887h.4v-.6H4.831v.6h.354L6.17,8.6l-1.01,1.579H4.805Z" transform="translate(-2.571 -2.204)"/></svg>